<?xml version="1.0" encoding="UTF-8"?>
<svg id="_レイヤー_2" data-name="レイヤー 2" xmlns="http://www.w3.org/2000/svg" viewBox="0 0 571.26 519.41">
  <defs>
    <style>
      .cls-1 {
        fill: #accbc4;
      }

      .cls-1, .cls-2, .cls-3, .cls-4, .cls-5, .cls-6, .cls-7, .cls-8 {
        stroke-width: 0px;
      }

      .cls-2 {
        fill: #c1cce0;
      }

      .cls-3 {
        fill: #75a89c;
      }

      .cls-4, .cls-9 {
        fill: #fff;
      }

      .cls-5 {
        fill: #a4aebf;
      }

      .cls-9 {
        font-family: BIZ-UDPGothic-Bold, 'BIZ UDPGothic';
        font-size: 269.04px;
        font-weight: 700;
      }

      .cls-6 {
        fill: #adb7c9;
      }

      .cls-7 {
        fill: #bed6cf;
      }

      .cls-8 {
        fill: #84bdaf;
      }
    </style>
  </defs>
  <g id="_レイヤー_2-2" data-name="レイヤー 2">
    <g id="_レイヤー_5" data-name="レイヤー 5">
      <circle class="cls-6" cx="463.34" cy="365.57" r="107.92"/>
      <path class="cls-2" d="m529.56,281.02c19.11,19.47,30.91,46.15,30.91,75.59,0,59.6-48.32,107.92-107.92,107.92-25.28,0-48.53-8.7-66.93-23.26,19.58,19.95,46.85,32.33,77.01,32.33,59.6,0,107.92-48.32,107.92-107.92,0-34.32-16.02-64.9-40.99-84.66Z"/>
      <path class="cls-5" d="m462.62,257.78c-59.6,0-107.92,48.32-107.92,107.92,0,31.79,13.75,60.38,35.63,80.13,58.41-41.32,97.57-108.03,101.41-184.07-9.26-2.59-19.03-3.98-29.12-3.98Z"/>
      <path class="cls-5" d="m389.33,360.23c-12.39,0-24.13,2.78-34.64,7.74,1.29,58.49,49.1,105.5,107.89,105.5.52,0,1.03-.01,1.54-.02,4.19-9.8,6.51-20.59,6.51-31.92,0-44.9-36.4-81.31-81.31-81.31Z"/>
    </g>
    <g id="_レイヤー_3" data-name="レイヤー 3">
      <circle class="cls-3" cx="240.42" cy="241.1" r="240.42"/>
      <path class="cls-8" d="m240.58,0c-.96,0-1.91.03-2.87.04,125.12,3.18,225.57,105.61,225.57,231.5s-103.68,231.57-231.57,231.57S3,362.25.21,236.77c-.02,1.21-.05,2.42-.05,3.64,0,132.78,107.64,240.42,240.42,240.42s240.42-107.64,240.42-240.42S373.36,0,240.58,0Z"/>
    </g>
    <text class="cls-9" transform="translate(55.41 340.13)"><tspan x="0" y="0">あ</tspan></text>
    <g id="_レイヤー_4" data-name="レイヤー 4">
      <circle class="cls-1" cx="386.38" cy="437.8" r="81.31"/>
      <path class="cls-7" d="m435.5,373.33c13.74,14.56,22.17,34.17,22.17,55.77,0,44.9-36.4,81.31-81.31,81.31-18.46,0-35.48-6.16-49.13-16.53,14.82,15.71,35.82,25.53,59.13,25.53,44.9,0,81.31-36.4,81.31-81.31,0-26.44-12.63-49.92-32.17-64.77Z"/>
    </g>
    <g>
      <rect class="cls-4" x="361.54" y="185.1" width="34.38" height="110"/>
      <rect class="cls-4" x="362.23" y="184.42" width="34.38" height="110" transform="translate(618.83 -140) rotate(90)"/>
    </g>
  </g>
</svg>